<?xml version="1.0" encoding="UTF-8"?>
<svg version="1.1" xmlns="http://www.w3.org/2000/svg" width="512" height="512">
<path d="M0 0 C1.04285156 0.00451172 2.08570313 0.00902344 3.16015625 0.01367188 C5.69016854 0.02527744 8.22005042 0.0415993 10.75 0.0625 C11.18570313 0.99191406 11.62140625 1.92132812 12.0703125 2.87890625 C19.79144735 19.04892514 30.25325579 27.85594885 47.15234375 34.375 C79.06213525 45.62546164 116.46186965 45.78669707 147.4765625 31.3984375 C161.93454477 23.98321942 170.55094649 15.03275161 176.75 0.0625 C207.14805949 -0.79744801 236.48479132 3.95052285 265.9375 11.1875 C267.41609497 11.54968628 267.41609497 11.54968628 268.92456055 11.91918945 C273.36728547 13.049102 277.49427073 14.29071892 281.67358398 16.20507812 C285.75985544 17.89243678 290.01342764 19.12710742 294.22094727 20.47509766 C306.57732251 24.43455671 318.4710551 28.54782354 329.75 35.0625 C330.34570801 35.39491699 330.94141602 35.72733398 331.55517578 36.06982422 C338.90863953 40.18264504 345.84658906 44.25567812 349.75 52.0625 C353.1976777 92.32197279 342.33159031 158.15883809 319.75 192.0625 C311.47677744 199.95092151 296.84410324 200.30809546 285.9453125 200.23046875 C279.50803657 199.89207894 273.12968347 198.95901763 266.75 198.0625 C267.08 198.7225 267.41 199.3825 267.75 200.0625 C267.88432296 202.07177769 267.9560239 204.08533991 267.99951172 206.09863281 C268.0299205 207.38220673 268.06032928 208.66578064 268.09165955 209.98825073 C268.10591413 210.6822485 268.12016872 211.37624626 268.13485527 212.09127426 C268.18045661 214.30292646 268.23189921 216.51437467 268.28492737 218.7258606 C268.36115557 221.91654684 268.43541759 225.1072696 268.50827026 228.29803467 C267.60872713 316.84424332 267.60872713 316.84424332 281.1015625 403.52734375 C284.19269065 415.61253754 284.51309539 429.41228078 278.390625 440.53125 C272.54496558 449.81198764 265.17959509 453.28877041 254.75 456.0625 C239.56491238 458.76115202 224.10112176 458.34653429 208.73828125 458.32128906 C205.94713014 458.3229055 203.15598555 458.32749643 200.36483765 458.33190918 C193.6114475 458.34073996 186.85810215 458.33890961 180.10471034 458.3330839 C174.60948622 458.32854231 169.11427454 458.32796522 163.61904907 458.33013153 C162.83293159 458.330438 162.0468141 458.33074446 161.23687488 458.33106022 C159.63922365 458.33169975 158.04157243 458.33234818 156.44392121 458.3330054 C141.50985917 458.33869019 126.5758218 458.33217999 111.64176381 458.32140467 C98.86500468 458.31247085 86.08828191 458.31402341 73.31152344 458.32324219 C58.42599357 458.33397768 43.54048525 458.33814104 28.65495205 458.33201766 C27.06361835 458.33138065 25.47228464 458.33075191 23.88095093 458.33013153 C22.70691152 458.3296687 22.70691152 458.3296687 21.50915414 458.32919653 C16.02909752 458.32747939 10.54905472 458.33036335 5.06900024 458.33509064 C-1.62160823 458.34073607 -8.31216985 458.33910685 -15.00277305 458.32852915 C-18.40762022 458.32332119 -21.81232613 458.32223237 -25.21718216 458.32782745 C-72.7857056 458.39874414 -72.7857056 458.39874414 -85.25 448.0625 C-94.60874947 437.83316918 -95.76011198 428.57457394 -95.36080933 415.07281494 C-95.0516185 409.46344111 -93.94434528 403.95403894 -92.9375 398.4375 C-92.46399363 395.68413579 -92.00538743 392.92841745 -91.55078125 390.171875 C-91.43690063 389.4825589 -91.32302002 388.7932428 -91.20568848 388.08303833 C-84.08504708 344.40153738 -83.84106718 299.21324725 -82.25 255.0625 C-82.20510437 253.81958191 -82.16020874 252.57666382 -82.11395264 251.29608154 C-81.47433213 233.55218808 -80.85436216 215.80762995 -80.25 198.0625 C-81.24 198.3925 -82.23 198.7225 -83.25 199.0625 C-98.29885346 200.94360668 -117.56864714 202.13417908 -130.79296875 193.37890625 C-155.35429614 170.22331461 -161.50521152 97.95711227 -162.6965332 65.81689453 C-162.96847787 51.48950831 -162.96847787 51.48950831 -159.5625 46.6875 C-145.99295049 33.52503698 -125.45143668 26.36998826 -107.8125 20.75 C-106.22683658 20.23488289 -104.64154829 19.7186096 -103.05664062 19.20117188 C-100.05878775 18.22380998 -97.05849893 17.25466439 -94.05566406 16.29272461 C-91.19608319 15.36833226 -88.35619418 14.41261644 -85.51953125 13.421875 C-79.57736335 11.43494246 -73.47043238 10.05316256 -67.375 8.625 C-66.72670227 8.47287048 -66.07840454 8.32074097 -65.41046143 8.16400146 C-43.92860392 3.16121529 -22.09051023 -0.18575461 0 0 Z " fill="#3B88C3" transform="translate(162.25,26.9375)"/>
<path d="M0 0 C5.28 0 10.56 0 16 0 C17.03125 2.165625 18.0625 4.33125 19.125 6.5625 C26.86792628 22.20618845 39.92833904 29.91452982 56.125 35.625 C86.86901858 45.80748186 123.15347955 45.05540897 152.7265625 31.3359375 C167.38588459 23.81745615 175.51701841 15.12695705 182 0 C187.28 0.33 192.56 0.66 198 1 C199.0096455 15.89227114 192.43828014 28.94317181 183 40 C182.43796875 40.65871094 181.8759375 41.31742188 181.296875 41.99609375 C172.06184824 51.97393788 159.5120492 59.02497092 147 64 C145.8759375 64.45117188 144.751875 64.90234375 143.59375 65.3671875 C119.87597548 74.08089162 92.48781591 74.58338729 68 69 C67.32759277 68.85014648 66.65518555 68.70029297 65.96240234 68.54589844 C57.52582373 66.6183561 49.70952893 63.95271812 42 60 C40.62908203 59.32130859 40.62908203 59.32130859 39.23046875 58.62890625 C32.48294542 55.14661798 26.70001027 51.00488707 21 46 C20.23816406 45.34515625 19.47632813 44.6903125 18.69140625 44.015625 C9.02922419 35.10699267 0.91812026 22.27743145 0 9 C-0.07001597 5.99398115 -0.04699455 3.00765147 0 0 Z " fill="#54AAEC" transform="translate(157,27)"/>
<path d="M0 0 C1.59576143 2.95481254 2.58882572 5.78939667 3.4375 9.03515625 C3.69273438 10.01033203 3.94796875 10.98550781 4.2109375 11.99023438 C4.60152344 13.51100586 4.60152344 13.51100586 5 15.0625 C5.26039062 16.04927734 5.52078125 17.03605469 5.7890625 18.05273438 C7.04893046 22.91086159 8.16482026 27.73377335 9 32.68359375 C9.72161084 36.86714289 10.82395809 40.69416936 12.23681641 44.68945312 C13.70212596 49.1256942 14.6455733 53.69955953 15.6875 58.25 C18.24510252 69.18641065 21.13756859 80.00700826 24.19604492 90.81347656 C26.08370551 97.5182042 27.77094004 104.23134029 29.30493164 111.02539062 C30.2591326 115.10898194 31.40010898 119.11547092 32.625 123.125 C32.87008301 123.93614258 33.11516602 124.74728516 33.36767578 125.58300781 C37.00393807 137.46543868 41.01894412 149.22969049 45 161 C22.94900265 158.53052072 22.94900265 158.53052072 16 152 C-3.97285278 117.39534946 -18.30619405 52.74807059 -13 13 C-11.35077808 8.9913421 -9.422074 6.61607653 -6 4 C-5.40574219 3.53722656 -4.81148437 3.07445313 -4.19921875 2.59765625 C-2.5625 1.4375 -2.5625 1.4375 0 0 Z " fill="#54ABEC" transform="translate(13,66)"/>
<path d="M0 0 C7.5344163 4.0625 7.5344163 4.0625 10.375 7.625 C10.85710937 8.21539062 11.33921875 8.80578125 11.8359375 9.4140625 C18.78303874 18.87890513 13.76183833 40.37299919 12.109375 51.35546875 C-2.25496123 139.89426536 -2.25496123 139.89426536 -18.6875 155.5625 C-26.55085322 158.97489857 -34.4764938 160.46381414 -43 161 C-42.73863447 159.64397415 -42.46527857 158.29025908 -42.1875 156.9375 C-42.03667969 156.18339844 -41.88585937 155.42929688 -41.73046875 154.65234375 C-40.99168309 151.96980117 -39.92276662 149.55501942 -38.80053711 147.01538086 C-37.22996349 143.06140549 -36.25788238 138.92402975 -35.1875 134.8125 C-33.28263647 127.6387637 -31.26909962 120.52382444 -29.0625 113.4375 C-26.06345663 103.73793615 -23.72705975 93.88614699 -21.44750977 83.99780273 C-19.12363324 74.03648593 -19.12363324 74.03648593 -17.37890625 69.609375 C-15.95423579 65.88020928 -15.25125403 62.43645389 -14.625 58.5 C-13.65992003 52.82682272 -12.31607201 47.45896998 -10.5 42 C-8.75703097 36.74031201 -7.42833245 31.58816547 -6.5 26.125 C-4.97019048 17.22911345 -2.53454213 8.65551147 0 0 Z " fill="#54ABEC" transform="translate(498,66)"/>
<path d="M0 0 C3.58273331 1.65356922 6.80973467 3.67980703 10 6 C10 6.66 10 7.32 10 8 C5.56983933 6.60766379 3.08449737 4.43701135 0 1 C0 0.67 0 0.34 0 0 Z " fill="#4B9BD8" transform="translate(28,215)"/>
<path d="M0 0 C-1.25535985 3.76607955 -2.52883585 4.26441793 -6 6 C-6.99 6 -7.98 6 -9 6 C-9 5.34 -9 4.68 -9 4 C-2.25 0 -2.25 0 0 0 Z " fill="#4199D8" transform="translate(482,217)"/>
</svg>
